HIERARCHY
ROOT Hips
{
  OFFSET 54.1671 95.9177 122.497
  CHANNELS 6 Xposition Yposition Zposition Zrotation Xrotation Yrotation
  JOINT RightUpLeg
  {
    OFFSET -8.9458 -8.66707 0.101652
    CHANNELS 3 Zrotation Xrotation Yrotation
    JOINT RightLeg
    {
      OFFSET 0 -44.4227 1.3727
      CHANNELS 3 Zrotation Xrotation Yrotation
      JOINT RightFoot
      {
        OFFSET 0.253549 -42.0924 -1.46059
        CHANNELS 3 Zrotation Xrotation Yrotation
        JOINT RightToes
        {
          OFFSET 0.04 -4.41509 8.4991
          CHANNELS 3 Zrotation Xrotation Yrotation
          End Site
          {
            OFFSET -0.08 -0.137448 9.77979
          }
        }
      }
    }
  }
  JOINT Spine
  {
    OFFSET 0 11.8905 0
    CHANNELS 3 Zrotation Xrotation Yrotation
    JOINT Spine1
    {
      OFFSET 0 25.6574 0.127663
      CHANNELS 3 Zrotation Xrotation Yrotation
      JOINT HEad
      {
        OFFSET 0 8.73416 0.011341
        CHANNELS 3 Zrotation Xrotation Yrotation
        End Site
        {
          OFFSET -0.29 12.7742 2.51395
        }
      }
      JOINT LeftShoulder1
      {
        OFFSET 8.99 -0.362252 -0.22
        CHANNELS 3 Zrotation Xrotation Yrotation
        JOINT LeftArm
        {
          OFFSET 10.2827 -0.00338 0.322123
          CHANNELS 3 Zrotation Xrotation Yrotation
          JOINT LeftForeArm
          {
            OFFSET 32.7669 0.099144 -1.42434
            CHANNELS 3 Zrotation Xrotation Yrotation
            JOINT LeftHand
            {
              OFFSET 27.5643 0.085362 1.02216
              CHANNELS 3 Zrotation Xrotation Yrotation
              End Site
              {
                OFFSET 16.7443 -0.6 1.50291
              }
            }
          }
        }
      }
      JOINT RightShoulder
      {
        OFFSET -8.99 -0.362252 -0.22
        CHANNELS 3 Zrotation Xrotation Yrotation
        JOINT RightArm
        {
          OFFSET -10.2827 -0.00338 0.322123
          CHANNELS 3 Zrotation Xrotation Yrotation
          JOINT RightForeArm
          {
            OFFSET -32.8971 0.099144 -1.42434
            CHANNELS 3 Zrotation Xrotation Yrotation
            JOINT RightHand
            {
              OFFSET -27.4921 0.085362 1.02216
              CHANNELS 3 Zrotation Xrotation Yrotation
              End Site
              {
                OFFSET -16.6312 -0.6 1.50291
              }
            }
          }
        }
      }
    }
  }
  JOINT LeftUpLeg
  {
    OFFSET 8.9458 -8.66707 0.101652
    CHANNELS 3 Zrotation Xrotation Yrotation
    JOINT LeftLeg
    {
      OFFSET 0 -44.4227 1.3727
      CHANNELS 3 Zrotation Xrotation Yrotation
      JOINT LeftFoot
      {
        OFFSET -0.253549 -42.0924 -1.46059
        CHANNELS 3 Zrotation Xrotation Yrotation
        JOINT LeftToes
        {
          OFFSET -0.04 -4.41509 8.4991
          CHANNELS 3 Zrotation Xrotation Yrotation
          End Site
          {
            OFFSET 0.08 -0.047448 9.77979
          }
        }
      }
    }
  }
}
MOTION
Frames:	9
Frame Time:	0.0166667
54.1671 95.9177 122.497 -2.32665 0.0821585 172.095 7.48133 -28.3952 2.17046 -6.83378 30.0598 7.49425 -0.463658 -4.92945 -0.147078 0.0462048 0.000533964 0.662642 -0.510768 2.56232 -0.257811 -2.64265 7.25601 0.426838 0.732818 -2.0394 8.25082 3.97569e-016 -3.18055e-015 1.59028e-015 -98.2646 -51.4293 -22.6556 -8.61452 13.5552 -23.7069 0.368473 9.90896 -0.00117926 -4.18532 0.466172 6.22656 98.5513 -56.7507 12.4768 0.836679 11.1558 12.9089 -0.369625 9.91382 0.00119886 0.163941 6.79189 0.104193 -13.769 28.532 16.8621 -11.9453 -8.04475 -0.259367 2.83324e-011 4.3704e-011 3.70376e-012 
54.5069 95.9937 120.79 -2.13761 0.556334 171.688 7.82595 -27.1719 0.958026 -7.64963 30.8657 9.36596 -1.22967 -6.00458 -0.164558 -0.219497 0.028299 0.638723 -0.0146341 2.65576 -0.311616 -2.72235 7.73502 0.471127 1.07291 -2.09145 8.50731 3.97569e-016 0 1.59028e-015 -97.3646 -52.4406 -20.9251 -8.79449 13.604 -23.7973 0.368473 9.90896 -0.00117926 -4.30095 0.464514 6.3987 99.9242 -56.056 13.8115 0.709437 11.1239 13.0431 -0.369625 9.91382 0.00119886 0.877496 5.68035 1.40342 -14.183 33.1941 18.0603 -12.1548 -5.12524 0.047388 2.1372 -1.14057 0.584741 
54.8364 95.9849 119.141 -1.83062 0.959341 171.359 8.39428 -26.0954 0.111931 -8.48385 31.8122 10.8508 -1.8335 -7.19031 -0.186336 -0.502802 0.0181516 0.609047 0.656095 2.7771 -0.408903 -2.76114 8.23216 0.515959 1.39525 -2.13152 8.78583 -1.98785e-016 0 -4.77083e-015 -96.4806 -53.444 -19.2753 -8.90548 13.6314 -23.8318 0.368473 9.90896 -0.00117926 -4.46001 0.459804 6.59964 101.266 -55.308 15.0615 0.620963 11.099 13.2243 -0.369625 9.91382 0.00119886 1.68772 4.29867 2.56512 -14.7283 38.033 18.9459 -12.3456 -2.66335 0.303487 3.72303 -1.97447 1.01343 
55.1371 95.702 117.662 -1.17561 1.1959 171.242 9.51955 -25.4748 0.228339 -9.35882 33.3442 11.1579 -1.8449 -8.76399 -0.215246 -1.18903 0.0305587 0.533863 1.87053 2.99151 -0.641762 -2.67987 8.84888 0.565536 1.63109 -2.13446 9.15358 1.98785e-016 -1.59028e-015 -3.18055e-015 -95.8298 -54.4891 -17.9789 -8.81158 13.5969 -23.7465 0.368473 9.90896 -0.00117926 -4.78465 0.442711 6.88352 102.714 -54.4141 16.1917 0.618274 11.0888 13.5374 -0.369625 9.91382 0.00119886 2.74074 2.15719 3.32467 -14.9679 43.7196 18.302 -12.4239 -1.30413 0.444625 3.8575 -2.03258 1.03809 
55.4236 95.373 116.256 -0.432348 1.27335 171.261 10.7196 -25.0372 0.809179 -9.887 34.9045 10.9292 -1.9063 -10.3359 -0.260184 -1.19333 -0.267538 0.5094 3.22287 3.2149 -0.908023 -2.54978 9.35346 0.609024 1.91265 -2.1284 9.49685 -3.97569e-016 -1.59028e-015 1.59028e-015 -95.2492 -55.5062 -16.8863 -8.64499 13.5374 -23.5097 0.368473 9.90896 -0.00117926 -5.08182 0.429052 7.20315 103.952 -53.4981 17.1569 0.714322 11.0981 13.9155 -0.369625 9.91382 0.00119886 3.7956 -0.338916 3.95884 -14.6095 49.3366 16.9321 -12.4072 -0.943915 0.47877 2.89235 -1.49753 0.77456 
55.7044 95.1625 114.882 0.249398 1.12558 171.411 11.6796 -24.6622 1.67127 -9.55984 36.0696 10.6796 -2.84984 -11.5562 -0.348667 1.55538 -1.57815 0.714566 4.49361 3.39271 -1.1516 -2.4092 9.50181 0.636953 2.4309 -2.13293 9.7105 -1.19271e-015 0 -0 -94.6439 -56.4256 -15.9739 -8.49304 13.4728 -22.9879 0.368473 9.90896 -0.00117926 -5.16048 0.435377 7.54438 104.636 -52.6711 17.859 0.967862 11.1403 14.3335 -0.369625 9.91382 0.00119886 4.66263 -3.02274 4.82372 -13.4557 54.2197 15.1669 -12.2782 -2.03371 0.352848 0.723161 -0.437012 0.186281 
55.9795 95.0708 113.489 0.784185 0.875357 171.616 12.3404 -24.1807 2.51642 -8.91638 36.809 10.0384 -3.67662 -12.5829 -0.42751 3.73001 -2.73374 0.862502 5.48466 3.50173 -1.32586 -2.27413 9.43252 0.648589 2.94259 -2.14852 9.83604 -1.98785e-016 0 3.18055e-015 -94.0326 -57.276 -15.1339 -8.35192 13.4098 -22.4221 0.368473 9.90896 -0.00117926 -5.13811 0.45002 7.86216 105.049 -51.8791 18.4751 1.28706 11.1968 14.7522 -0.369625 9.91382 0.00119886 5.37452 -5.67062 5.41619 -12.1218 57.9768 13.592 -12.1078 -3.5545 0.181777 -2.07738 1.27452 -0.515029 
56.2652 95.2038 111.989 0.943267 0.654132 171.816 12.3858 -23.2803 2.85008 -8.37887 36.7875 8.55723 -3.345 -13.4368 -0.432016 1.36092 -2.41819 0.602873 5.78086 3.47426 -1.34036 -2.2346 9.19048 0.645289 3.28772 -2.18163 9.85082 1.98785e-016 3.18055e-015 -0 -93.3438 -58.0145 -14.2148 -8.25471 13.3681 -22.0407 0.368473 9.90896 -0.00117926 -5.02534 0.46966 8.05982 105.282 -51.0964 19.1144 1.62602 11.2594 15.1334 -0.369625 9.91382 0.00119886 5.6933 -7.91094 5.16173 -11.9898 59.7335 13.8529 -11.9182 -4.39171 0.090146 -5.42151 4.33172 -1.18038 
56.52 95.4102 110.461 1.00231 0.370543 171.959 12.2899 -22.2979 3.08768 -7.89554 36.4485 7.04667 -2.80104 -14.1801 -0.421219 -1.62077 -1.78025 0.300613 5.8121 3.38932 -1.27031 -2.10939 8.8127 0.611867 3.40744 -2.23383 9.84219 0 0 -0 -92.6884 -58.7717 -13.2686 -8.18644 13.3395 -21.7457 0.368473 9.90896 -0.00117926 -4.9509 0.485947 8.27802 105.489 -50.3361 19.828 1.90832 11.3115 15.4488 -0.369625 9.91382 0.00119886 5.88725 -10.0565 4.57614 -12.6301 60.3566 14.8458 -11.7956 -5.28285 -0.00400275 -7.98403 6.95622 -1.67099 
